#!OML:ASF E:/inclinewalkrobotboard/Project1/Captureday1/Session1/subject1.ASF
:FULLY-SPECIFIED
:DEGREES
263
root 0 0 0 -0.38527140609167143 -2.0331302219990297 -3.886218159519267
lowerback 16.52739187299482 1.0957803061822133 -0.12334115170265669
upperback 0.6599616972118466 1.4348475099956928 0.3250621092239926
thorax -8.630916208863521 0.6792399888335281 0.050518924147205824
lowerneck -7.468860752316821 -3.2584828139388855 1.3217649083229803
upperneck -6.053726478105368 -4.225564693494788 1.7213031888588388
head -0.7528091433278083 -2.1925917619038664 0.23362425929266112
rclavicle -3.8000145399301215E-16 1.821008146022092E-17
rhumerus 12.099617758739257 0.5306060306968075 -39.42898177004956
rradius 118.8266696576238
rwrist -30.823397552602124
rhand -11.665310149140257 -36.648353400465
rfingers 7.125019999999964
rthumb 14.417259663747824 -66.0614003792827
lclavicle -3.960326934319744E-16 -4.550675437768453E-16
lhumerus -43.44326861700984 -0.3843292337857295 83.16718002517376
lradius 45.40929803998768
lwrist 1.8888567673436947
lhand -15.471793418751759 -12.561582580747993
lfingers 7.125019999999936
lthumb 10.664246068526015 16.591077769357053
rfemur -2.7358918024727776 1.017602328439341 5.469950934335001
rtibia 8.192141658433874
rfoot -1.5416625460789688 -1.3341625996751292
rtoes 0.7836133181432967
lfemur -6.49054002825206 -3.5871380339523347 -12.184292521649137
ltibia 27.358340857204198
lfoot -19.361353162704162 8.052337671934012
ltoes -43.5784699627508
264
root 0 0 0 -0.3852154725254934 -2.033210651617659 -3.886315497800036
lowerback 16.52819060262229 1.0956007445268563 -0.12348102256478288
upperback 0.6594091300135189 1.4345827193432528 0.3249714709117427
thorax -8.631918661596815 0.6791025106283013 0.050497347222209665
lowerneck -7.469028277234005 -3.258327456357867 1.3223818966456946
upperneck -6.059013772151157 -4.225238604456677 1.720687470493478
head -0.7545404880698534 -2.192515878543087 0.23341102494188684
rclavicle -3.8001858761473846E-16 1.8235849946692216E-17
rhumerus 12.100126035261098 0.531223647601692 -39.428383207729226
rradius 118.82837460745722
rwrist -30.824134842728757
rhand -11.66506141323153 -36.649966330237845
rfingers 7.125019999999964
rthumb 14.417494382235885 -66.06296400297086
lclavicle -3.9580142478755604E-16 -4.549034955654392E-16
lhumerus -43.445300670276126 -0.3842272139677777 83.16749916000335
lradius 45.41205428805049
lwrist 1.887752492169203
lhand -15.46951702337583 -12.568759436969456
lfingers 7.125019999999936
lthumb 10.666409911856972 16.584178849898688
rfemur -2.73509848907167 1.0172977509597314 5.4683464957086745
rtibia 8.189785562967485
rfoot -1.541199833047759 -1.3337620594437771
rtoes 0.7833784921611093
lfemur -6.49021607439256 -3.5873652578872104 -12.183603954467305
ltibia 27.357692162009204
lfoot -19.36262324460197 8.05343989150914
ltoes -43.582143726307365
265
root 0 0 0 -0.3851597940464385 -2.0332902661326897 -3.8864131243764874
lowerback 16.528980160490715 1.0954242767532651 -0.12361843391607263
upperback 0.658861026425408 1.434322441849206 0.3248811947250616
thorax -8.632911380873566 0.6789672835221112 0.050474560942366575
lowerneck -7.469194481787312 -3.2581746751174023 1.3229918726779513
upperneck -6.064246885877811 -4.22491778156396 1.7200802579778978
head -0.7562541631141002 -2.1924414682582185 0.23320064962282416
rclavicle -3.800356837646157E-16 1.826141560552176E-17
rhumerus 12.100632460477591 0.5318358607515208 -39.42778784806756
rradius 118.83006803200732
rwrist -30.824867161052108
rhand -11.664815036944344 -36.65156559923733
rfingers 7.125019999999964
rthumb 14.417726875922279 -66.06451435744663
lclavicle -3.955716598951545E-16 -4.547405592916807E-16
lhumerus -43.44731676691005 -0.38412535504524525 83.16781618514885
lradius 45.414787798192926
lwrist 1.8866559062353083
lhand -15.467258347806176 -12.575880440251366
lfingers 7.125019999999936
lthumb 10.668557046282368 16.57733363416553
rfemur -2.7343123275529244 1.0169959490884377 5.466756655385291
rtibia 8.187450775992588
rfoot -1.5407414097911802 -1.333365155880009
rtoes 0.7831457963317345
lfemur -6.489894330377991 -3.5875910266705913 -12.182919803925449
ltibia 27.357047600552136
lfoot -19.363885170999723 8.054535061753748
ltoes -43.58579379682598
266
root 0 0 0 -0.385104378459708 -2.0333691099944637 -3.886510811910715
lowerback 16.52976077968571 1.095250500563437 -0.12375367325342912
upperback 0.6583172732589786 1.4340660996427497 0.3247913773311226
thorax -8.633894641631967 0.6788340305495293 0.05045089797230862
lowerneck -7.469359413987477 -3.258024086098595 1.3235953345024352
upperneck -6.069427800915399 -4.224601538116235 1.7194807199569968
head -0.7579507822248788 -2.1923682815212957 0.23299286378704717
rclavicle -3.800526946093153E-16 1.8286762485068824E-17
rhumerus 12.101135353544215 0.5324427059825343 -39.4271970119548
rradius 118.83174782400015
rwrist -30.82559357433841
rhand -11.664570879087819 -36.6531510621505
rfingers 7.125019999999964
rthumb 14.41795727756527 -66.06605130289734
lclavicle -3.95343352050868E-16 -4.545787184959341E-16
lhumerus -43.44931759033395 -0.3840237263544586 83.16813110701148
lradius 45.41749964993749
lwrist 1.8855668287478358
lhand -15.46501669050368 -12.58294780951837
lfingers 7.125019999999936
lthumb 10.670688117030457 16.570539958882577
rfemur -2.733532273242429 1.0166964929852909 5.46517918367404
rtibia 8.185134114951072
rfoot -1.5402865981461868 -1.3329713458293817
rtoes 0.782914885369608
lfemur -6.489574511444633 -3.587815504363868 -12.182239675498991
ltibia 27.35640668555323
lfoot -19.3651397226288 8.055623839417365
ltoes -43.589422333421254
267
root 0 0 0 -0.3850492759840264 -2.033447257695938 -3.8866082881757658
lowerback 16.530532967047783 1.095078926375853 -0.12388709474456405
upperback 0.6577776863266123 1.4338129918070681 0.32470212550885535
thorax -8.634868946177928 0.6787024127313213 0.05042674250555701
lowerneck -7.4695232652015795 -3.25787525480522 1.3241929055522013
upperneck -6.074559695827894 -4.224289061636201 1.7188877845033497
head -0.7596313288695908 -2.192296037614278 0.23278731992088145
rclavicle -3.8006957985878636E-16 1.8311876540706488E-17
rhumerus 12.101633206762017 0.5330442106052704 -39.42661188237311
rradius 118.83341209202646
rwrist -30.826313239933896
rhand -11.664328813443412 -36.654722588987404
rfingers 7.125019999999964
rthumb 14.41818570551741 -66.06757471604814
lclavicle -3.9511646320363656E-16 -4.544179563792235E-16
lhumerus -43.451303777258666 -0.38392240111019005 83.16844393410673
lradius 45.42019086564806
lwrist 1.8844850984673447
lhand -15.462791395801123 -12.589963621918741
lfingers 7.125019999999936
lthumb 10.672803726624075 16.56379580794529
rfemur -2.7327575160968305 1.0163990504859919 5.463612358468257
rtibia 8.182833132514403
rfoot -1.5398348670986266 -1.3325802069229016
rtoes 0.7826855006924205
lfemur -6.4892564906019565 -3.5880387489305834 -12.181563452579269
ltibia 27.355769249698366
lfoot -19.366387147488254 8.056706424210375
ltoes -43.59303000940138
